<?xml version="1.0" standalone="no"?><!DOCTYPE svg PUBLIC "-//W3C//DTD SVG 1.1//EN" "http://www.w3.org/Graphics/SVG/1.1/DTD/svg11.dtd"><svg t="1506414305663" class="icon" style="" viewBox="0 0 1024 1024" version="1.1" xmlns="http://www.w3.org/2000/svg" p-id="12125" xmlns:xlink="http://www.w3.org/1999/xlink" width="48" height="48"><defs><style type="text/css"></style></defs><path d="M512 0A512 512 0 0 0 0 512a512 512 0 0 0 512 512 512 512 0 0 0 512-512A512 512 0 0 0 512 0zM273.066667 290.133333a22.755556 22.755556 0 0 1 22.755555-22.755555h182.044445a22.755556 22.755556 0 0 1 22.755555 22.755555v91.022223a22.755556 22.755556 0 0 1-22.755555 22.755555H295.822222a22.755556 22.755556 0 0 1-22.755555-22.755555z m0 170.666667a22.755556 22.755556 0 0 1 22.755555-22.755556h182.044445a22.755556 22.755556 0 0 1 22.755555 22.755556v91.022222a22.755556 22.755556 0 0 1-22.755555 22.755556H295.822222a22.755556 22.755556 0 0 1-22.755555-22.755556z m477.866666 273.066667a22.755556 22.755556 0 0 1-22.755555 22.755555H295.822222a22.755556 22.755556 0 0 1-22.755555-22.755555v-91.022223a22.755556 22.755556 0 0 1 22.755555-22.755555h432.355556a22.755556 22.755556 0 0 1 22.755555 22.755555z m0-182.044445a22.755556 22.755556 0 0 1-22.755555 22.755556H546.133333a22.755556 22.755556 0 0 1-22.755555-22.755556v-261.688889a22.755556 22.755556 0 0 1 22.755555-22.755555h182.044445a22.755556 22.755556 0 0 1 22.755555 22.755555z" p-id="12126" fill="#ffffff"></path></svg>