<?xml version="1.0" standalone="no"?><!DOCTYPE svg PUBLIC "-//W3C//DTD SVG 1.1//EN" "http://www.w3.org/Graphics/SVG/1.1/DTD/svg11.dtd"><svg t="1506414128578" class="icon" style="" viewBox="0 0 1024 1024" version="1.1" xmlns="http://www.w3.org/2000/svg" p-id="6258" xmlns:xlink="http://www.w3.org/1999/xlink" width="48" height="48"><defs><style type="text/css"></style></defs><path d="M512.674 62.155c-250.959 0-454.4 203.443-454.4 454.4 0 250.958 203.442 454.4 454.4 454.4 250.957 0 454.4-203.44 454.4-454.399 0-250.958-203.442-454.401-454.4-454.401z m-2.845 637.982L313.062 831.689l14.203-238.585 153.771-268.857 34.306 19.913-149.114 260.702-4.44 74.556 57.395 33.451 60.99-40.776 149.433-261.267 34.306 19.916-154.083 269.395z m45.38-332.674l34.309 19.916-108.395 189.522-34.312-19.916 108.398-189.522z m174.932-52.757l-39.456 68.981-182.86-106.563 39.459-68.985c19.555-34.191 55.036-53.302 91.524-53.302 17.909 0 36.064 4.607 52.685 14.295h0.006c50.488 29.428 67.792 94.601 38.642 145.574z" p-id="6259" fill="#ffffff"></path><path d="M683.828 187.68c-9.861-5.748-21.034-8.785-32.308-8.785-23.138 0-44.696 12.558-56.255 32.766l-19.393 33.904 112.387 65.496 19.326-33.784c17.916-31.327 7.26-71.523-23.757-89.597z" p-id="6260" fill="#ffffff"></path></svg>