<?xml version="1.0" standalone="no"?><!DOCTYPE svg PUBLIC "-//W3C//DTD SVG 1.1//EN" "http://www.w3.org/Graphics/SVG/1.1/DTD/svg11.dtd"><svg t="1506414096593" class="icon" style="" viewBox="0 0 1024 1024" version="1.1" xmlns="http://www.w3.org/2000/svg" p-id="5471" xmlns:xlink="http://www.w3.org/1999/xlink" width="48" height="48"><defs><style type="text/css"></style></defs><path d="M853.057723 86.475514 173.399235 86.475514c-31.281447 0-56.637951 25.356504-56.637951 56.637951l0 736.296439c0 31.281447 25.356504 56.637951 56.637951 56.637951l679.658488 0c31.278377 0 56.637951-25.356504 56.637951-56.637951L909.695674 143.113465C909.695674 111.832018 884.335077 86.475514 853.057723 86.475514zM626.504894 652.857075 230.037187 652.857075l0-56.637951 396.467707 0L626.504894 652.857075zM796.418748 482.942197 230.037187 482.942197l0-56.637951 566.381561 0L796.418748 482.942197zM796.418748 313.028343 230.037187 313.028343l0-56.637951 566.381561 0L796.418748 313.028343z" p-id="5472" fill="#ffffff"></path></svg>