<?xml version="1.0" standalone="no"?><!DOCTYPE svg PUBLIC "-//W3C//DTD SVG 1.1//EN" "http://www.w3.org/Graphics/SVG/1.1/DTD/svg11.dtd"><svg t="1506414160055" class="icon" style="" viewBox="0 0 1024 1024" version="1.1" xmlns="http://www.w3.org/2000/svg" p-id="6999" xmlns:xlink="http://www.w3.org/1999/xlink" width="48" height="48"><defs><style type="text/css"></style></defs><path d="M743.569 615.022c-8.59 0-18.327 3.519-26.055 9.411-2.042 1.551-4.261 3.519-6.403 5.919 6.25 1.968 11.468 6.083 14.919 11.898 6.277 10.652 5.488 25.232-2.114 38.993-6.384 11.558-12.374 20.905-17.808 27.765-5.529 6.978-13.115 14.992-22.795 14.992-17.101 0-22.23-19.898-30.013-50.022-1.604-6.25-2.791-13.138-4.037-20.428-1.87-10.902-3.805-22.177-7.066-30.018-1.683-4.023-3.168-5.733-3.89-6.41-0.656-0.583-1.088-0.75-1.968-0.75-0.471 0-1.007 0.053-1.604 0.178-4.635 0.881-14.986 4.674-32.618 20.156 4.123 0.881 7.769 2.975 10.526 6.124 4.382 5.024 8.212 16.001 21.131 56.922 5.628 17.818 12.613 39.959 15.462 45.687l0.019 0.025c3.407 6.86 10.704 13.953 17.008 13.953 1.929 0 3.91-0.662 6.038-1.996 7.729-4.852 27.459-19.884 46.907-41.982 15.601-17.764 35.366-45.257 40.902-75.473 1.141-6.237 1.61-14.722-2.618-19.778-3.732-4.5-10.326-5.17-13.925-5.17z" p-id="7000" fill="#ffffff"></path><path d="M518.202 11.348c-271.597 0-491.766 220.177-491.766 491.775 0 271.589 220.177 491.766 491.766 491.766 271.603 0 491.775-220.177 491.775-491.766 0-271.597-220.177-491.775-491.775-491.775zM310.246 268.35c37.489-37.84 101.668-112.67 200.823-79.396 115.381 38.847 92.581 158.615 92.581 158.615s-22.8 11.983-46.284 0c-33.107-17.054-61.82-47.635-61.82-47.635s-51.024 49.836-123.481 47.635c-97.466-3.215-123.487-47.635-123.487-47.635s35.287-4.898 61.666-31.583zM464.788 548.908c-61.66 3.717-111.988-51.851-125.507-129.055-2.87-16.206-2.87-32.59-0.505-48.292 9.962 1.511 21.131 2.526 33.28 2.877 72.458 2.353 123.481-47.483 123.481-47.483s28.713 30.562 61.82 47.483c13.011 6.754 25.67 6.073 34.644 4.043 1.332 13.509 0.83 27.54-1.862 41.373-15.363 82.267-57.776 124.839-125.349 129.055zM505.656 592.654l-40.518 68.442-40.708-68.442 40.708-41.206 40.518 41.206zM465.138 825.588c-176.868-0.994-230.237-95.927-230.237-95.927s15.204-54.243 40.717-95.953c40.708-66.732 94.761-95.953 94.761-95.953l94.768 164.522 94.748-164.522c0 0 19.984 12.349 42.386 30.721-42.122 23.264-70.661 68.102-70.661 119.617 0 48.676 25.484 91.367 63.813 115.554-33.273 12.95-76.102 22.27-130.293 21.945zM681.505 807.221c-66.281 0-120.001-53.733-120.001-119.993 0-66.293 53.722-120.015 120.001-120.015 66.268 0 119.993 53.722 119.993 120.015 0.005 66.254-53.722 119.993-119.993 119.993z" p-id="7001" fill="#ffffff"></path></svg>