<?xml version="1.0" standalone="no"?><!DOCTYPE svg PUBLIC "-//W3C//DTD SVG 1.1//EN" "http://www.w3.org/Graphics/SVG/1.1/DTD/svg11.dtd"><svg t="1506413400909" class="icon" style="" viewBox="0 0 1024 1024" version="1.1" xmlns="http://www.w3.org/2000/svg" p-id="3168" xmlns:xlink="http://www.w3.org/1999/xlink" width="128" height="128"><defs><style type="text/css"></style></defs><path d="M949.8 872.1l-0.4-0.4v0.2l-71.3-70.6c22.9-31.2 35.4-68.9 35.5-107.6-0.1-75.1-45.7-142.6-115.3-170.8-69.7-28.7-149.9-13-203.6 39.9-53.4 52.6-69.4 132.3-40.5 201.4 29.2 69.4 97.2 114.5 172.5 114.3 27.4-0.1 54.5-6.3 79.2-18.2l77.4 76.6c18.3 18.2 47.8 18.2 66.1 0 18-17.6 18.2-46.7 0.4-64.8z m-223.3-48.9c-71.5-0.8-128.8-59.4-128-130.9s59.4-128.8 130.9-128c70.9 0.8 128 58.5 128 129.4-0.4 71.9-59 129.9-130.9 129.5z" p-id="3169" fill="#ffffff"></path><path d="M516.4 832.5c-9.1-11.5-16.7-24.1-22.4-37.6-4.8-11.2-8.5-22.8-11.2-34.7h0.4c-3.5-15.2-5.8-30.6-6.9-46.2-1.1-16.2-0.2-32.4 2.6-48.4 3.3-17.5 8.4-34.7 15.5-51.1 8.6-19.4 18.9-38 30.9-55.6 3.6-5.4 6.6-11.2 9-17.3l5.6-15c4-10.2 10.5-19.2 18.9-26.2 5-4.6 9.1-10.2 12-16.4 3.5-7.2 6.6-14.3 9.5-21.7 2.9-8.7 5.8-17.5 8.6-26.2 6-2 11.6-5.2 16.4-9.4 5.1-4.7 9.3-10.2 12.4-16.4 4.2-9.2 6.7-19.2 7.3-29.4 1.2-7.6 1.1-15.3-0.4-22.9-1.1-5.3-3-10.5-5.6-15.2-2.1-4.4-5.4-8.2-9.5-11 0.6-22.7-0.6-45.4-3.4-67.9-3.3-20.9-8.3-41.4-15-61.4-7.1-21.7-18-41.9-32.2-59.8-7.4-8.8-15.8-16.8-24.9-23.8-10.9-8.2-22.5-15.2-34.8-21.1-13.5-6.4-27.6-11.5-42.1-15.2-15.5-4.1-31.5-6.1-47.6-6.1-13.4 0.1-26.8 1.3-40 3.6-29.8 4.7-58 16.8-82 35.2-30.5 23.7-52.5 56.3-62.9 93.3-5.5 19-9.5 38.4-12.1 58-2.3 21.4-3.4 42.8-3.4 64.3-4.5 5.5-8 11.8-10.3 18.6-2.4 6.7-4 13.7-4.8 20.8-0.7 8.7 0.3 17.5 3 25.8 2 7.9 5.4 15.4 9.9 22.2 3.1 4.3 6.7 8.3 10.8 11.9 3.7 2.5 7.8 4.5 12.1 5.8 2.7 8.7 5.5 17.5 8.5 26.2 2.8 7.4 6 14.6 9.5 21.7 2.8 6.2 6.9 11.8 12 16.4 9 7.4 17.8 15 26.2 22.9 8.3 8.9 13.1 20.5 13.4 32.7 0.6 6.8 0.8 13.6 0.7 20.4 0 6.9-1.4 13.7-3.9 20.2-3.1 8-7.6 15.3-13.4 21.5-8.3 7.9-17.5 14.6-27.4 20.2-16.5 9.9-34.3 17.5-52.8 22.4-19.2 5.2-38.1 11.2-56.7 17.7-17.2 6-33.3 14.8-47.6 26-14.4 11.8-23.6 28.8-25.8 47.3-5.5 29.4-6.8 59.4-3.9 89.2 0.7 15.3 6.1 30 15.3 42.1 6.3 6.5 14.4 11.2 23.2 13.4 35.9 9.1 72.4 15.3 109.2 18.6 35.7 4.3 81.9 6.1 116.4 7.2 24.1 0.9 58.8 0.7 75.4 0.7 37.5 0 100.7-2.2 146.4-7.4 19.2-1.3 38.4-3.8 57.3-7.4-20.6-10.2-39.9-22.9-57.5-37.6-14.2-11.1-26.9-23.8-37.9-37.9z" p-id="3170" fill="#ffffff"></path></svg>