<?xml version="1.0" standalone="no"?><!DOCTYPE svg PUBLIC "-//W3C//DTD SVG 1.1//EN" "http://www.w3.org/Graphics/SVG/1.1/DTD/svg11.dtd"><svg t="1506414378834" class="icon" style="" viewBox="0 0 1024 1024" version="1.1" xmlns="http://www.w3.org/2000/svg" p-id="13514" xmlns:xlink="http://www.w3.org/1999/xlink" width="48" height="48"><defs><style type="text/css"></style></defs><path d="M560.929386 297.598932c-0.274246-0.274246-0.603751-0.452301-0.881067-0.720408-2.989077-2.892887-6.189979-5.566786-9.661034-7.887644-1.727341-1.154289-3.598968-1.948375-5.40101-2.931772-2.158153-1.179872-4.235464-2.481518-6.525624-3.432169-2.234901-0.924045-4.565992-1.452071-6.868431-2.131547-2.02103-0.600681-3.960195-1.37737-6.053879-1.793856-4.192485-0.831948-8.442276-1.230014-12.701277-1.280156-0.285502-0.00307-0.548492-0.084934-0.833995-0.084934s-0.548492 0.080841-0.833995 0.084934c-4.259 0.051165-8.508791 0.448208-12.701277 1.280156-2.094708 0.415462-4.03285 1.193175-6.054903 1.793856-2.302439 0.679475-4.631484 1.207501-6.866385 2.131547-2.290159 0.948605-4.365424 2.25025-6.523577 3.431146-1.803066 0.982374-3.675716 1.777483-5.40408 2.932796-3.471055 2.320858-6.671956 4.994758-9.661034 7.887644-0.277316 0.268106-0.606821 0.445138-0.881067 0.720408L124.349099 636.32761c-27.01733 27.025517-27.01733 70.825069 0 97.850585 13.512758 13.504572 31.214932 20.261463 48.925293 20.261463s35.412534-6.756891 48.925293-20.261463l220.61663-220.61663 0 377.23262c0 38.208207 30.978549 69.186755 69.186755 69.186755s69.186755-30.978549 69.186755-69.186755L581.189825 513.565658l220.608443 220.61356c13.512758 13.504572 31.214932 20.261463 48.925293 20.261463 17.702174 0 35.412534-6.756891 48.925293-20.261463 27.01733-27.01733 27.01733-70.825069 0-97.850585L560.929386 297.598932z" p-id="13515" fill="#ffffff"></path><path d="M171.188894 202.391547l681.622212 0c38.208207 0 69.186755-30.978549 69.186755-69.186755s-30.978549-69.186755-69.186755-69.186755L171.188894 64.018036c-38.208207 0-69.186755 30.978549-69.186755 69.186755S132.980687 202.391547 171.188894 202.391547z" p-id="13516" fill="#ffffff"></path></svg>